<?xml version="1.0" encoding="UTF-8" standalone="no"?>
<svg 
    role="img" 
    xmlns="http://www.w3.org/2000/svg" 
    width="1000mm"
    height="1000mm"
    viewBox="0 110 1000 1000"
    style="max-width:1.6em; height: auto;">
    
    <path 
        id="path" 
        style="opacity:1;vector-effect:none;fill:#000000;fill-opacity:1;"
        d=" M 900 287C 934 287 962 316 962 350C 962 350 962 900 962 900C 962 934 934 962 900 962C 900 962 100 962 100 962C 66 962 38 934 38 900C 38 900 38 350 38 350C 38 316 66 287 100 287C 100 287 900 287 900 287M 780 443C 780 443 580 568 580 568C 542 592 519 600 500 600C 481 600 458 592 420 568C 420 568 220 443 220 443C 202 432 179 437 168 455C 157 473 162 496 180 507C 180 507 380 632 380 632C 423 658 459 675 500 675C 540 675 577 659 620 632C 620 632 820 507 820 507C 834 498 841 481 837 465C 832 448 817 437 800 437C 793 437 786 439 780 443C 780 443 780 443 780 443"
        transform="">
    </path>    
</svg>