<svg version="1.1" id="Layer_1" xmlns="http://www.w3.org/2000/svg" xmlns:xlink="http://www.w3.org/1999/xlink" x="0px" y="0px"
	 width="100%" viewBox="0 0 94 110" enable-background="new 0 0 94 110" xml:space="preserve">
<path fill="#FBFBFB" opacity="1.000000" stroke="none" 
	d="
M54.000000,111.000000 
	C36.000004,111.000000 18.500006,111.000000 1.000007,111.000000 
	C1.000005,74.333344 1.000005,37.666687 1.000002,1.000022 
	C32.333317,1.000015 63.666637,1.000015 94.999969,1.000007 
	C94.999977,37.666645 94.999977,74.333290 94.999985,110.999969 
	C81.500000,111.000000 68.000000,111.000000 54.000000,111.000000 
M75.756287,17.196236 
	C75.756287,22.121325 75.756287,27.046413 75.756287,32.030159 
	C79.186890,32.030159 81.944496,32.030159 85.091553,32.030159 
	C85.091553,28.865492 85.194138,25.899385 85.069511,22.942856 
	C84.833252,17.338003 81.970917,14.487927 75.335762,13.395323 
	C61.353432,13.577491 47.361004,13.501907 33.392963,14.048966 
	C26.251524,14.328660 19.823706,17.294962 14.507187,22.237450 
	C2.678226,33.234207 3.868921,53.267738 17.741417,61.406860 
	C25.787682,66.127678 35.216621,68.475235 43.983078,71.991196 
	C49.511639,74.208557 55.398758,75.934845 60.345116,79.100174 
	C66.707977,83.171967 65.685463,91.037598 58.750263,94.166092 
	C56.113880,95.355370 52.983929,95.873024 50.063236,95.933037 
	C39.906235,96.141754 29.742323,96.027245 19.581133,96.000473 
	C18.481379,95.997566 17.382229,95.765625 15.755404,95.579620 
	C15.755404,86.939087 15.755404,78.545074 15.755404,70.315414 
	C12.424323,70.315414 9.663308,70.315414 6.451006,70.315414 
	C6.451006,76.428268 6.311185,82.231285 6.487073,88.024727 
	C6.697895,94.968781 10.160133,98.212418 17.265285,98.240326 
	C30.091482,98.290718 42.940472,98.681511 55.735683,98.043091 
	C62.770424,97.692093 69.929466,96.193329 76.643211,94.013290 
	C84.216377,91.554176 88.851601,85.606323 90.726601,77.745346 
	C94.043839,63.837719 88.612114,51.367783 75.567139,45.356121 
	C68.538315,42.116943 60.762814,40.510464 53.350166,38.087883 
	C47.058140,36.031544 40.645615,34.225422 34.591885,31.603317 
	C31.015976,30.054449 29.386866,26.457994 30.361494,22.357082 
	C31.291521,18.443836 34.221176,16.278049 37.960815,16.227268 
	C50.587936,16.055807 63.220013,16.249588 75.756287,17.196236 
z"/>
<path fill="#121212" opacity="1.000000" stroke="none" 
	d="
M75.850204,16.303719 
	C63.220013,16.249588 50.587936,16.055807 37.960815,16.227268 
	C34.221176,16.278049 31.291521,18.443836 30.361494,22.357082 
	C29.386866,26.457994 31.015976,30.054449 34.591885,31.603317 
	C40.645615,34.225422 47.058140,36.031544 53.350166,38.087883 
	C60.762814,40.510464 68.538315,42.116943 75.567139,45.356121 
	C88.612114,51.367783 94.043839,63.837719 90.726601,77.745346 
	C88.851601,85.606323 84.216377,91.554176 76.643211,94.013290 
	C69.929466,96.193329 62.770424,97.692093 55.735683,98.043091 
	C42.940472,98.681511 30.091482,98.290718 17.265285,98.240326 
	C10.160133,98.212418 6.697895,94.968781 6.487073,88.024727 
	C6.311185,82.231285 6.451006,76.428268 6.451006,70.315414 
	C9.663308,70.315414 12.424323,70.315414 15.755404,70.315414 
	C15.755404,78.545074 15.755404,86.939087 15.755404,95.579620 
	C17.382229,95.765625 18.481379,95.997566 19.581133,96.000473 
	C29.742323,96.027245 39.906235,96.141754 50.063236,95.933037 
	C52.983929,95.873024 56.113880,95.355370 58.750263,94.166092 
	C65.685463,91.037598 66.707977,83.171967 60.345116,79.100174 
	C55.398758,75.934845 49.511639,74.208557 43.983078,71.991196 
	C35.216621,68.475235 25.787682,66.127678 17.741417,61.406860 
	C3.868921,53.267738 2.678226,33.234207 14.507187,22.237450 
	C19.823706,17.294962 26.251524,14.328660 33.392963,14.048966 
	C47.361004,13.501907 61.353432,13.577491 75.682182,14.009490 
	C75.969131,15.183678 75.909668,15.743698 75.850204,16.303719 
M35.224586,53.267799 
	C32.545300,52.377033 29.888699,51.408516 27.180132,50.618076 
	C24.636549,49.875778 22.038052,49.321644 19.463718,48.684711 
	C19.322750,49.215809 19.181784,49.746902 19.040817,50.277996 
	C26.391140,52.711590 33.741463,55.145184 41.091789,57.578777 
	C41.309513,56.923576 41.527241,56.268379 41.744965,55.613178 
	C39.812664,54.928932 37.880363,54.244686 35.224586,53.267799 
M52.447186,53.128342 
	C56.047188,54.271847 59.647194,55.415356 63.247196,56.558865 
	C63.457253,55.894180 63.667309,55.229500 63.877365,54.564816 
	C57.708660,52.482235 51.539951,50.399651 45.371246,48.317070 
	C45.148636,48.920883 44.926029,49.524693 44.703419,50.128506 
	C47.033058,51.044586 49.362701,51.960670 52.447186,53.128342 
M40.396477,65.826973 
	C41.458233,65.934052 42.519985,66.041130 43.581741,66.148209 
	C43.678024,65.625214 43.774307,65.102226 43.870594,64.579231 
	C37.706806,62.487495 31.543016,60.395760 25.379227,58.304024 
	C25.127823,59.001884 24.876419,59.699745 24.625013,60.397606 
	C29.659510,62.111553 34.694008,63.825500 40.396477,65.826973 
M63.444008,46.039917 
	C60.625870,45.302326 57.807732,44.564735 54.989594,43.827145 
	C54.829819,44.410877 54.670048,44.994614 54.510277,45.578346 
	C59.770779,47.315315 65.031288,49.052280 70.291794,50.789246 
	C70.526550,50.214775 70.761307,49.640305 70.996063,49.065834 
	C68.730072,48.132740 66.464088,47.199646 63.444008,46.039917 
M20.072371,39.590225 
	C18.976812,39.435444 17.881254,39.280663 16.785698,39.125881 
	C16.658644,39.670509 16.531591,40.215134 16.404537,40.759758 
	C20.363991,42.114960 24.323446,43.470158 28.282900,44.825359 
	C28.525772,44.172466 28.768646,43.519573 29.011520,42.866680 
	C26.272335,41.859615 23.533152,40.852551 20.072371,39.590225 
M51.582092,42.064987 
	C47.809845,40.831104 44.037598,39.597221 40.265350,38.363342 
	C40.043953,39.036083 39.822559,39.708828 39.601166,40.381573 
	C43.663410,41.676144 47.725655,42.970715 51.787903,44.265285 
	C51.977711,43.622597 52.167515,42.979908 51.582092,42.064987 
z"/>
<path fill="#050505" opacity="1.000000" stroke="none" 
	d="
M75.803246,16.749977 
	C75.909668,15.743698 75.969131,15.183678 76.049606,14.201443 
	C81.970917,14.487927 84.833252,17.338003 85.069511,22.942856 
	C85.194138,25.899385 85.091553,28.865492 85.091553,32.030159 
	C81.944496,32.030159 79.186890,32.030159 75.756287,32.030159 
	C75.756287,27.046413 75.756287,22.121325 75.803246,16.749977 
z"/>
<path fill="#BEBEBE" opacity="1.000000" stroke="none" 
	d="
M35.586327,53.414116 
	C37.880363,54.244686 39.812664,54.928932 41.744965,55.613178 
	C41.527241,56.268379 41.309513,56.923576 41.091789,57.578777 
	C33.741463,55.145184 26.391140,52.711590 19.040817,50.277996 
	C19.181784,49.746902 19.322750,49.215809 19.463718,48.684711 
	C22.038052,49.321644 24.636549,49.875778 27.180132,50.618076 
	C29.888699,51.408516 32.545300,52.377033 35.586327,53.414116 
z"/>
<path fill="#BEBEBE" opacity="1.000000" stroke="none" 
	d="
M52.069763,53.002548 
	C49.362701,51.960670 47.033058,51.044586 44.703419,50.128506 
	C44.926029,49.524693 45.148636,48.920883 45.371246,48.317070 
	C51.539951,50.399651 57.708660,52.482235 63.877365,54.564816 
	C63.667309,55.229500 63.457253,55.894180 63.247196,56.558865 
	C59.647194,55.415356 56.047188,54.271847 52.069763,53.002548 
z"/>
<path fill="#BDBDBD" opacity="1.000000" stroke="none" 
	d="
M40.062492,65.683212 
	C34.694008,63.825500 29.659510,62.111553 24.625013,60.397606 
	C24.876419,59.699745 25.127823,59.001884 25.379227,58.304024 
	C31.543016,60.395760 37.706806,62.487495 43.870594,64.579231 
	C43.774307,65.102226 43.678024,65.625214 43.581741,66.148209 
	C42.519985,66.041130 41.458233,65.934052 40.062492,65.683212 
z"/>
<path fill="#B4B4B4" opacity="1.000000" stroke="none" 
	d="
M63.821056,46.153236 
	C66.464088,47.199646 68.730072,48.132740 70.996063,49.065834 
	C70.761307,49.640305 70.526550,50.214775 70.291794,50.789246 
	C65.031288,49.052280 59.770779,47.315315 54.510277,45.578346 
	C54.670048,44.994614 54.829819,44.410877 54.989594,43.827145 
	C57.807732,44.564735 60.625870,45.302326 63.821056,46.153236 
z"/>
<path fill="#ABABAB" opacity="1.000000" stroke="none" 
	d="
M20.433170,39.717857 
	C23.533152,40.852551 26.272335,41.859615 29.011520,42.866680 
	C28.768646,43.519573 28.525772,44.172466 28.282900,44.825359 
	C24.323446,43.470158 20.363991,42.114960 16.404537,40.759758 
	C16.531591,40.215134 16.658644,39.670509 16.785698,39.125881 
	C17.881254,39.280663 18.976812,39.435444 20.433170,39.717857 
z"/>
<path fill="#C3C3C3" opacity="1.000000" stroke="none" 
	d="
M51.969707,42.201103 
	C52.167515,42.979908 51.977711,43.622597 51.787903,44.265285 
	C47.725655,42.970715 43.663410,41.676144 39.601166,40.381573 
	C39.822559,39.708828 40.043953,39.036083 40.265350,38.363342 
	C44.037598,39.597221 47.809845,40.831104 51.969707,42.201103 
z"/>
</svg>